<?xml version="1.0" encoding="iso-8859-1"?>
<!-- Generator: Adobe Illustrator 19.0.0, SVG Export Plug-In . SVG Version: 6.00 Build 0)  -->
<svg version="1.1" id="Layer_1" xmlns="http://www.w3.org/2000/svg" xmlns:xlink="http://www.w3.org/1999/xlink" x="0px" y="0px"
	 viewBox="0 0 511.999 511.999" style="enable-background:new 0 0 511.999 511.999;" xml:space="preserve">
<rect x="87.025" y="213.872" style="fill:#FBB500;" width="337.95" height="267.28"/>
<rect x="87.025" y="213.872" style="fill:#FFCE47;" width="168.98" height="267.28"/>
<path style="fill:#E0A117;" d="M298.894,310.778c0-23.69-19.205-42.894-42.894-42.894s-42.894,19.205-42.894,42.894
	c0,16.139,8.916,30.188,22.088,37.51v78.837h41.611v-78.837C289.977,340.967,298.894,326.917,298.894,310.778z"/>
<g>
	<path style="fill:#DB6000;" d="M162.077,155.188c0-51.789,42.134-93.923,93.923-93.923s93.923,42.134,93.923,93.923v58.679h30.418
		v-58.679c0-68.561-55.779-124.34-124.34-124.34s-124.34,55.778-124.34,124.34v58.679h30.418V155.188z"/>
	<path style="fill:#DB6000;" d="M30.418,339.866c0-17.365,14.129-31.494,31.494-31.494h25.112v-30.418H61.912
		C27.773,277.953,0,305.727,0,339.866s27.773,61.912,61.912,61.912h56.188V371.36H61.912
		C44.547,371.36,30.418,357.232,30.418,339.866z"/>
	<path style="fill:#DB6000;" d="M450.088,277.953h-25.112v30.418h25.112c17.365,0,31.494,14.129,31.494,31.494
		s-14.129,31.494-31.494,31.494H192.497l22.308-22.308l-21.508-21.508l-59.026,59.025l59.026,59.026l21.508-21.508l-22.309-22.309
		h257.591c34.139,0,61.912-27.773,61.912-61.912S484.227,277.953,450.088,277.953z"/>
</g>
<g>
</g>
<g>
</g>
<g>
</g>
<g>
</g>
<g>
</g>
<g>
</g>
<g>
</g>
<g>
</g>
<g>
</g>
<g>
</g>
<g>
</g>
<g>
</g>
<g>
</g>
<g>
</g>
<g>
</g>
</svg>
