<?xml version="1.0" encoding="iso-8859-1"?>
<!-- Generator: Adobe Illustrator 19.0.0, SVG Export Plug-In . SVG Version: 6.00 Build 0)  -->
<svg version="1.1" id="Layer_1" xmlns="http://www.w3.org/2000/svg" xmlns:xlink="http://www.w3.org/1999/xlink" x="0px" y="0px"
	 viewBox="0 0 511.335 511.335" style="enable-background:new 0 0 511.335 511.335;" xml:space="preserve">
<g>
	<path style="fill:#5C6887;" d="M344.275,502.84H167.723c-34.127,0-61.793-27.666-61.793-61.793V273.323h300.138v167.724
		C406.068,475.174,378.402,502.84,344.275,502.84"/>
	<path style="fill:#F0C419;" d="M344.275,502.84H167.723c-34.127,0-61.793-27.666-61.793-61.793h300.138
		C406.068,475.174,378.402,502.84,344.275,502.84"/>
	<g>
		<path style="fill:#FFFFFF;" d="M255.999,326.288c-9.737,0-17.655,7.918-17.655,17.655c0,9.737,7.918,17.655,17.655,17.655
			c9.737,0,17.655-7.918,17.655-17.655C273.654,334.207,265.736,326.288,255.999,326.288 M255.999,379.254
			c-19.474,0-35.31-15.837-35.31-35.31s15.837-35.31,35.31-35.31s35.31,15.837,35.31,35.31S275.473,379.254,255.999,379.254"/>
		<path style="fill:#FFFFFF;" d="M255.999,405.737c-4.882,0-8.828-3.955-8.828-8.828v-26.483c0-4.873,3.946-8.828,8.828-8.828
			s8.828,3.955,8.828,8.828v26.483C264.827,401.782,260.881,405.737,255.999,405.737"/>
	</g>
	<g>
		<path style="fill:#A5A5A4;" d="M35.275,26.15c-4.732,0-9.172,1.827-12.482,5.138c-3.319,3.319-5.138,7.742-5.138,12.482
			s1.827,9.172,5.138,12.491l24.346,24.338c6.621,6.621,18.335,6.63,24.964,0c3.319-3.319,5.138-7.742,5.138-12.482
			c0-4.74-1.827-9.172-5.138-12.491L47.757,31.288C44.447,27.978,40.015,26.15,35.275,26.15 M59.622,103.392
			c-9.454,0-18.317-3.663-24.964-10.311L10.311,68.744C3.663,62.088,0,53.225,0,43.77s3.663-18.317,10.311-24.964
			S25.83,8.495,35.275,8.495c9.454,0,18.317,3.663,24.964,10.311l24.346,24.338c6.647,6.656,10.311,15.519,10.311,24.973
			c0,9.454-3.663,18.317-10.311,24.964S69.067,103.392,59.622,103.392"/>
		<path style="fill:#A5A5A4;" d="M122.482,139.806c-2.26,0-4.52-0.865-6.241-2.586L54.448,75.426c-3.452-3.452-3.452-9.031,0-12.482
			c3.452-3.452,9.031-3.452,12.482,0l61.793,61.793c3.452,3.452,3.452,9.031,0,12.482
			C127.002,138.94,124.742,139.806,122.482,139.806"/>
		<path style="fill:#A5A5A4;" d="M476.06,26.814c-4.74,0-9.172,1.827-12.482,5.138L439.232,56.29
			c-3.31,3.319-5.138,7.751-5.138,12.491c0,4.74,1.818,9.163,5.138,12.482c6.621,6.63,18.344,6.621,24.964,0l24.346-24.338
			c3.31-3.319,5.138-7.751,5.138-12.491s-1.818-9.163-5.138-12.482C485.232,28.642,480.792,26.814,476.06,26.814 M451.714,104.056
			c-9.445,0-18.317-3.663-24.964-10.311c-6.647-6.647-10.311-15.51-10.311-24.964s3.663-18.317,10.311-24.973l24.346-24.338
			c6.647-6.647,15.51-10.311,24.964-10.311c9.445,0,18.317,3.663,24.964,10.311c6.647,6.647,10.311,15.51,10.311,24.964
			s-3.663,18.317-10.311,24.973l-24.347,24.338C470.031,100.392,461.168,104.056,451.714,104.056"/>
		<path style="fill:#A5A5A4;" d="M388.853,140.469c-2.26,0-4.52-0.865-6.241-2.586c-3.452-3.452-3.452-9.031,0-12.482l61.793-61.793
			c3.452-3.452,9.031-3.452,12.482,0c3.452,3.452,3.452,9.031,0,12.482l-61.793,61.793
			C393.373,139.604,391.113,140.469,388.853,140.469"/>
		<path style="fill:#A5A5A4;" d="M359.043,175.448c5.667,1.086,11.617-0.662,15.775-4.802l24.346-24.346
			c3.31-3.31,5.138-7.751,5.138-12.482c0-4.74-1.819-9.172-5.138-12.482c-6.638-6.638-18.344-6.621-24.964,0l-24.346,24.338
			c-2.445,2.445-3.734,5.217-4.387,7.68C350.718,160.158,355.264,167.565,359.043,175.448 M362.371,193.421
			c-4.326,0-8.686-0.794-12.879-2.419c-2.18-0.847-3.937-2.534-4.891-4.679c-3.981-9.084-9.128-17.47-15.289-24.929
			c-1.483-1.792-2.198-4.096-1.995-6.409c0.75-8.324,4.326-16.057,10.055-21.795l24.346-24.338
			c6.647-6.656,15.51-10.319,24.964-10.319c9.446,0,18.317,3.663,24.964,10.319c6.647,6.638,10.311,15.51,10.311,24.964
			c0,9.446-3.663,18.317-10.311,24.964L387.3,183.128C380.582,189.837,371.569,193.421,362.371,193.421"/>
		<path style="fill:#A5A5A4;" d="M124.654,115.525c-4.732,0-9.163,1.827-12.482,5.146c-3.319,3.31-5.138,7.742-5.138,12.482
			c0,4.732,1.827,9.172,5.138,12.482l24.346,24.338c4.149,4.149,10.099,5.897,15.775,4.811c3.778-7.883,8.324-15.289,13.577-22.104
			c-0.653-2.454-1.942-5.226-4.387-7.671l-24.346-24.338C133.826,117.353,129.395,115.525,124.654,115.525L124.654,115.525z
			 M158.649,182.103h0.079H158.649z M148.966,192.758c-9.198,0-18.22-3.584-24.929-10.293L99.69,158.118
			c-6.647-6.647-10.311-15.519-10.311-24.964c0-9.454,3.663-18.326,10.311-24.973c6.647-6.647,15.519-10.311,24.964-10.311
			c9.454,0,18.317,3.663,24.964,10.311l24.346,24.346c5.729,5.738,9.304,13.471,10.055,21.795c0.203,2.313-0.512,4.617-1.995,6.409
			c-6.162,7.459-11.308,15.846-15.289,24.929c-0.953,2.145-2.71,3.822-4.89,4.679C157.652,191.963,153.291,192.758,148.966,192.758
			L148.966,192.758z"/>
	</g>
	<path style="fill:#3D4763;" d="M370.758,273.323h-35.31v-52.966c0-43.811-35.637-79.448-79.448-79.448
		s-79.448,35.637-79.448,79.448v52.966h-35.31v-52.966c0-63.276,51.482-114.759,114.759-114.759s114.759,51.482,114.759,114.759
		V273.323z"/>
</g>
<g>
</g>
<g>
</g>
<g>
</g>
<g>
</g>
<g>
</g>
<g>
</g>
<g>
</g>
<g>
</g>
<g>
</g>
<g>
</g>
<g>
</g>
<g>
</g>
<g>
</g>
<g>
</g>
<g>
</g>
</svg>
